<?xml version="1.0" encoding="UTF-8" standalone="no"?><!DOCTYPE svg PUBLIC "-//W3C//DTD SVG 1.1//EN" "http://www.w3.org/Graphics/SVG/1.1/DTD/svg11.dtd"><svg width="100%" height="100%" viewBox="0 0 618 600" version="1.1" xmlns="http://www.w3.org/2000/svg" xmlns:xlink="http://www.w3.org/1999/xlink" xml:space="preserve" style="fill-rule:evenodd;clip-rule:evenodd;stroke-linejoin:round;stroke-miterlimit:1.41421;"><path d="M617.298,600l-508.5,0c0,0 29.416,-55.264 -39,-186.667c-46.317,-88.958 -23.842,-167.262 -6.75,-213.846c31.211,-85.065 2.25,-199.487 2.25,-199.487l552,0l0,600Z" style="fill:#fff;"/><path d="M617.298,600l-540.75,0c0,0 -77.049,-169.256 -27.181,-332.821c64.568,-154.183 -34.864,-135.695 15.931,-267.179l552,0l0,600Z" style="fill:#fff;fill-opacity:0.5;"/><path d="M617.298,600l-562.5,0c0,0 55.115,-148.616 33,-213.333c-32.478,-95.046 -95.37,-99.513 -45.503,-263.077c39.495,-127.824 -42.295,-123.524 -42.295,-123.524l617.298,-0.066l0,600Z" style="fill:#fff;fill-opacity:0.5;"/></svg>