<?xml version="1.0" encoding="UTF-8" standalone="no"?><!DOCTYPE svg PUBLIC "-//W3C//DTD SVG 1.1//EN" "http://www.w3.org/Graphics/SVG/1.1/DTD/svg11.dtd"><svg width="100%" height="100%" viewBox="0 0 618 600" version="1.1" xmlns="http://www.w3.org/2000/svg" xmlns:xlink="http://www.w3.org/1999/xlink" xml:space="preserve" style="fill-rule:evenodd;clip-rule:evenodd;stroke-linejoin:round;stroke-miterlimit:1.41421;"><path d="M0,617.298l0,-508.5c0,0 56.857,29.416 192.048,-39c91.523,-46.317 172.085,-23.842 220.012,-6.75c87.517,31.211 205.238,2.25 205.238,2.25l0,552l-617.298,0Z" style="fill:#fff;"/><path d="M0,617.298l0,-540.75c0,0 174.136,-77.049 342.416,-27.181c158.628,64.568 139.608,-34.864 274.882,15.931l0,552l-617.298,0Z" style="fill:#fff;fill-opacity:0.5;"/><path d="M0,617.298l0,-562.5c0,0 152.901,55.115 219.484,33c97.786,-32.478 102.381,-95.37 270.661,-45.503c131.509,39.495 127.085,-42.295 127.085,-42.295l0.068,617.298l-617.298,0Z" style="fill:#fff;fill-opacity:0.5;"/></svg>